G04 Layer_Color=0*
%FSLAX26Y26*%
%MOIN*%
%TF.FileFunction,Plated,1,2,PTH,Drill*%
%TF.Part,Single*%
G01*
G75*
%TA.AperFunction,OtherDrill,Pad Free-5 (300mil,-1050mil)*%
%ADD29C,0.047244*%
%TA.AperFunction,OtherDrill,Pad Free-5 (100mil,-1050mil)*%
%ADD30C,0.047244*%
%TA.AperFunction,OtherDrill,Pad Free-5 (-300mil,-1050mil)*%
%ADD31C,0.047244*%
%TA.AperFunction,OtherDrill,Pad Free-5 (-100mil,-1050mil)*%
%ADD32C,0.047244*%
%TA.AperFunction,ComponentDrill*%
%ADD33C,0.039370*%
%ADD34C,0.039370*%
%TA.AperFunction,OtherDrill,Pad Free-3 (0mil,625mil)*%
%ADD35C,0.027559*%
%TA.AperFunction,OtherDrill,Pad Free-2 (787.402mil,-984.252mil)*%
%ADD36C,0.157480*%
%TA.AperFunction,OtherDrill,Pad Free-2 (-787.402mil,-984.252mil)*%
%ADD37C,0.157480*%
%TA.AperFunction,OtherDrill,Pad Free-2 (-787.402mil,984.252mil)*%
%ADD38C,0.157480*%
%TA.AperFunction,OtherDrill,Pad Free-2 (787.402mil,984.252mil)*%
%ADD39C,0.157480*%
%TA.AperFunction,ViaDrill,NotFilled*%
%ADD40C,0.027559*%
D29*
X300000Y-1050000D02*
D03*
D30*
X100000D02*
D03*
D31*
X-300000D02*
D03*
D32*
X-100000D02*
D03*
D33*
X-350000Y250000D02*
D03*
X-250000D02*
D03*
X-150000D02*
D03*
X-50000D02*
D03*
X50000D02*
D03*
X150000D02*
D03*
X250000D02*
D03*
X350000D02*
D03*
X450000D02*
D03*
X350000Y-250000D02*
D03*
X50000D02*
D03*
X350000Y150000D02*
D03*
X250000D02*
D03*
X150000D02*
D03*
X50000D02*
D03*
X-50000D02*
D03*
X-150000D02*
D03*
X-250000D02*
D03*
X-350000D02*
D03*
Y-150000D02*
D03*
X-250000D02*
D03*
X-150000D02*
D03*
X-50000D02*
D03*
X50000D02*
D03*
X150000D02*
D03*
X250000D02*
D03*
X350000D02*
D03*
X200000Y900000D02*
D03*
Y800000D02*
D03*
X100000Y900000D02*
D03*
Y800000D02*
D03*
X0Y900000D02*
D03*
Y800000D02*
D03*
X-100000Y900000D02*
D03*
Y800000D02*
D03*
X-200000Y900000D02*
D03*
Y800000D02*
D03*
D34*
X700000Y-709842D02*
D03*
Y-609842D02*
D03*
Y-509842D02*
D03*
Y-409842D02*
D03*
Y-309842D02*
D03*
X-700000Y-700000D02*
D03*
Y-600000D02*
D03*
Y-500000D02*
D03*
Y-400000D02*
D03*
Y-300000D02*
D03*
D35*
X0Y625000D02*
D03*
D36*
X787402Y-984252D02*
D03*
D37*
X-787402D02*
D03*
D38*
Y984252D02*
D03*
D39*
X787402D02*
D03*
D40*
X-475000Y-300000D02*
D03*
Y-1050000D02*
D03*
X475000D02*
D03*
X450000Y1075000D02*
D03*
X0Y-800000D02*
D03*
X600000D02*
D03*
X700000Y-150000D02*
D03*
X-700000D02*
D03*
X-600000Y-800000D02*
D03*
X50000Y-700000D02*
D03*
X-50000Y-250000D02*
D03*
X-150000D02*
D03*
X-50000Y-600000D02*
D03*
X-150000Y-500000D02*
D03*
%TF.MD5,f916e7bd8f60855a752e7cfb647840d5*%
M02*
