G04 Layer_Physical_Order=2*
G04 Layer_Color=16711680*
%FSLAX26Y26*%
%MOIN*%
%TF.FileFunction,Copper,L2,Bot,Signal*%
%TF.Part,Single*%
G01*
G75*
%TA.AperFunction,Conductor*%
%ADD10C,0.078740*%
%ADD11C,0.070866*%
%TA.AperFunction,ViaPad*%
%ADD12O,0.118110X0.157480*%
%ADD13R,0.118110X0.157480*%
%TA.AperFunction,ComponentPad*%
G04:AMPARAMS|DCode=14|XSize=78.74mil|YSize=78.74mil|CornerRadius=19.685mil|HoleSize=0mil|Usage=FLASHONLY|Rotation=0.000|XOffset=0mil|YOffset=0mil|HoleType=Round|Shape=RoundedRectangle|*
%AMROUNDEDRECTD14*
21,1,0.078740,0.039370,0,0,0.0*
21,1,0.039370,0.078740,0,0,0.0*
1,1,0.039370,0.019685,-0.019685*
1,1,0.039370,-0.019685,-0.019685*
1,1,0.039370,-0.019685,0.019685*
1,1,0.039370,0.019685,0.019685*
%
%ADD14ROUNDEDRECTD14*%
%ADD15C,0.078740*%
%ADD16R,0.078740X0.078740*%
%TA.AperFunction,ViaPad*%
%ADD17O,0.062992X0.070866*%
%TA.AperFunction,ComponentPad*%
%ADD18R,0.078740X0.078740*%
%TA.AperFunction,ViaPad*%
%ADD19C,0.393701*%
%TA.AperFunction,ComponentPad*%
%ADD20R,0.086614X0.086614*%
%ADD21C,0.086614*%
%TA.AperFunction,ViaPad*%
%ADD22C,0.078740*%
%TA.AperFunction,ConnectorPad*%
%ADD23R,0.196850X0.059055*%
%TA.AperFunction,SMDPad,CuDef*%
%ADD24R,0.039370X0.070866*%
%TA.AperFunction,Conductor*%
%ADD25C,0.039370*%
%ADD26C,0.031496*%
G36*
X653574Y-636647D02*
X662093Y-647749D01*
X673196Y-656269D01*
X675788Y-657342D01*
Y-662342D01*
X673196Y-663416D01*
X669507Y-666247D01*
X91094D01*
X87907Y-662093D01*
X76804Y-653574D01*
X63875Y-648218D01*
X50000Y-646392D01*
X36125Y-648218D01*
X23196Y-653574D01*
X12093Y-662093D01*
X8906Y-666247D01*
X-658906D01*
X-662093Y-662093D01*
X-673196Y-653574D01*
X-675788Y-652500D01*
Y-647500D01*
X-673196Y-646426D01*
X-662093Y-637907D01*
X-658906Y-633753D01*
X-91094D01*
X-87907Y-637907D01*
X-76804Y-646426D01*
X-63875Y-651782D01*
X-50000Y-653608D01*
X-36125Y-651782D01*
X-23196Y-646426D01*
X-12093Y-637907D01*
X-8906Y-633753D01*
X652375D01*
X653574Y-636647D01*
D02*
G37*
G36*
X-737907Y-537907D02*
X-726804Y-546426D01*
X-724212Y-547500D01*
Y-552500D01*
X-726804Y-553574D01*
X-737907Y-562093D01*
X-741094Y-566247D01*
X-784646D01*
Y-556693D01*
X-966188D01*
Y-543307D01*
X-784646D01*
Y-533753D01*
X-741094D01*
X-737907Y-537907D01*
D02*
G37*
G36*
X787795Y-543307D02*
X966188D01*
Y-556693D01*
X787795D01*
Y-566247D01*
X730493D01*
X726804Y-563416D01*
X724212Y-562342D01*
Y-557342D01*
X726804Y-556269D01*
X737907Y-547749D01*
X746426Y-536647D01*
X747625Y-533753D01*
X787795D01*
Y-543307D01*
D02*
G37*
G36*
Y-743307D02*
X966188D01*
Y-864089D01*
X961404Y-865541D01*
X954864Y-855754D01*
X936659Y-834995D01*
X915900Y-816789D01*
X892942Y-801450D01*
X868179Y-789238D01*
X842034Y-780363D01*
X814953Y-774976D01*
X787402Y-773170D01*
X759850Y-774976D01*
X732770Y-780363D01*
X706624Y-789238D01*
X681861Y-801450D01*
X658903Y-816789D01*
X647898Y-826441D01*
X643724Y-823451D01*
X648099Y-812888D01*
X648500Y-809842D01*
X609842D01*
Y-848500D01*
X612888Y-848099D01*
X619503Y-845360D01*
X625149Y-848433D01*
X625358Y-849574D01*
X619939Y-855754D01*
X604599Y-878711D01*
X592387Y-903475D01*
X583512Y-929620D01*
X578126Y-956700D01*
X576320Y-984252D01*
X578126Y-1011804D01*
X583512Y-1038884D01*
X592387Y-1065030D01*
X604599Y-1089793D01*
X619939Y-1112751D01*
X638144Y-1133509D01*
X658903Y-1151715D01*
X668690Y-1158254D01*
X667239Y-1163039D01*
X-667239D01*
X-668690Y-1158254D01*
X-658903Y-1151715D01*
X-638144Y-1133509D01*
X-619939Y-1112751D01*
X-604599Y-1089793D01*
X-592387Y-1065030D01*
X-583512Y-1038884D01*
X-578126Y-1011804D01*
X-576320Y-984252D01*
X-578126Y-956700D01*
X-583512Y-929620D01*
X-592387Y-903475D01*
X-604599Y-878711D01*
X-619939Y-855754D01*
X-625358Y-849574D01*
X-625149Y-848433D01*
X-619503Y-845360D01*
X-612888Y-848099D01*
X-609842Y-848500D01*
Y-809842D01*
X-648500D01*
X-648099Y-812888D01*
X-643724Y-823451D01*
X-647898Y-826441D01*
X-658903Y-816789D01*
X-681861Y-801450D01*
X-706624Y-789238D01*
X-732770Y-780363D01*
X-759850Y-774976D01*
X-787402Y-773170D01*
X-814953Y-774976D01*
X-842034Y-780363D01*
X-868179Y-789238D01*
X-892942Y-801450D01*
X-915900Y-816789D01*
X-936659Y-834995D01*
X-954864Y-855754D01*
X-961404Y-865541D01*
X-966188Y-864089D01*
Y-743307D01*
X-784646D01*
Y-733753D01*
X-741094D01*
X-737907Y-737907D01*
X-726804Y-746426D01*
X-713875Y-751782D01*
X-700000Y-753608D01*
X-686125Y-751782D01*
X-673196Y-746426D01*
X-662093Y-737907D01*
X-658906Y-733753D01*
X8906D01*
X12093Y-737907D01*
X23196Y-746426D01*
X36125Y-751782D01*
X50000Y-753608D01*
X63875Y-751782D01*
X76804Y-746426D01*
X87907Y-737907D01*
X91094Y-733753D01*
X652375D01*
X653574Y-736647D01*
X662093Y-747749D01*
X673196Y-756269D01*
X686125Y-761624D01*
X700000Y-763451D01*
X713875Y-761624D01*
X726804Y-756269D01*
X737907Y-747749D01*
X746426Y-736647D01*
X747625Y-733753D01*
X787795D01*
Y-743307D01*
D02*
G37*
G36*
X-737907Y-637907D02*
X-726804Y-646426D01*
X-724212Y-647500D01*
Y-652500D01*
X-726804Y-653574D01*
X-737907Y-662093D01*
X-741094Y-666247D01*
X-784646D01*
Y-656693D01*
X-966188D01*
Y-643307D01*
X-784646D01*
Y-633753D01*
X-741094D01*
X-737907Y-637907D01*
D02*
G37*
G36*
X787795Y-643307D02*
X966188D01*
Y-656693D01*
X787795D01*
Y-666247D01*
X730493D01*
X726804Y-663416D01*
X724212Y-662342D01*
Y-657342D01*
X726804Y-656269D01*
X737907Y-647749D01*
X746426Y-636647D01*
X747625Y-633753D01*
X787795D01*
Y-643307D01*
D02*
G37*
G36*
X653574Y-536647D02*
X662093Y-547749D01*
X673196Y-556269D01*
X675788Y-557342D01*
Y-562342D01*
X673196Y-563416D01*
X669507Y-566247D01*
X-8906D01*
X-12093Y-562093D01*
X-23196Y-553574D01*
X-36125Y-548218D01*
X-50000Y-546392D01*
X-63875Y-548218D01*
X-76804Y-553574D01*
X-87907Y-562093D01*
X-91094Y-566247D01*
X-658906D01*
X-662093Y-562093D01*
X-673196Y-553574D01*
X-675788Y-552500D01*
Y-547500D01*
X-673196Y-546426D01*
X-662093Y-537907D01*
X-658906Y-533753D01*
X-191094D01*
X-187907Y-537907D01*
X-176804Y-546426D01*
X-163875Y-551782D01*
X-150000Y-553608D01*
X-136125Y-551782D01*
X-123196Y-546426D01*
X-112093Y-537907D01*
X-108906Y-533753D01*
X652375D01*
X653574Y-536647D01*
D02*
G37*
G36*
X-389180Y-113753D02*
X-396426Y-123196D01*
X-401781Y-136125D01*
X-403608Y-150000D01*
X-401781Y-163875D01*
X-396426Y-176804D01*
X-387907Y-187907D01*
X-383753Y-191094D01*
Y-350000D01*
X-382603Y-358736D01*
X-379231Y-366877D01*
X-373867Y-373867D01*
X-298867Y-448867D01*
X-291877Y-454231D01*
X-283736Y-457603D01*
X-275000Y-458753D01*
X-194099D01*
X-191533Y-463753D01*
X-193250Y-466247D01*
X-658906D01*
X-662093Y-462093D01*
X-673196Y-453574D01*
X-675788Y-452500D01*
Y-447500D01*
X-673196Y-446426D01*
X-662093Y-437907D01*
X-655859Y-429782D01*
X-650000D01*
X-642292Y-428767D01*
X-635109Y-425792D01*
X-628941Y-421059D01*
X-578941Y-371059D01*
X-574208Y-364891D01*
X-571232Y-357708D01*
X-570218Y-350000D01*
X-570218Y-349999D01*
Y-187336D01*
X-513373Y-130491D01*
X-508753Y-132405D01*
Y-258906D01*
X-512907Y-262093D01*
X-521426Y-273196D01*
X-526782Y-286125D01*
X-528608Y-300000D01*
X-526782Y-313875D01*
X-521426Y-326804D01*
X-512907Y-337907D01*
X-501804Y-346426D01*
X-488875Y-351781D01*
X-475000Y-353608D01*
X-461125Y-351781D01*
X-448196Y-346426D01*
X-437093Y-337907D01*
X-428574Y-326804D01*
X-423219Y-313875D01*
X-421392Y-300000D01*
X-423219Y-286125D01*
X-428574Y-273196D01*
X-437093Y-262093D01*
X-441247Y-258906D01*
Y-138981D01*
X-411019Y-108753D01*
X-391361D01*
X-389180Y-113753D01*
D02*
G37*
G36*
X120218Y-62336D02*
Y-105859D01*
X112093Y-112093D01*
X103574Y-123196D01*
X102500Y-125788D01*
X97500D01*
X96426Y-123196D01*
X87907Y-112093D01*
X76804Y-103574D01*
X63875Y-98219D01*
X50000Y-96392D01*
X36125Y-98219D01*
X23196Y-103574D01*
X12093Y-112093D01*
X3574Y-123196D01*
X2500Y-125788D01*
X-2500D01*
X-3574Y-123196D01*
X-12093Y-112093D01*
X-23196Y-103574D01*
X-36125Y-98219D01*
X-50000Y-96392D01*
X-63875Y-98219D01*
X-76804Y-103574D01*
X-87907Y-112093D01*
X-96426Y-123196D01*
X-97500Y-125788D01*
X-102500D01*
X-103574Y-123196D01*
X-112093Y-112093D01*
X-123196Y-103574D01*
X-136125Y-98219D01*
X-150000Y-96392D01*
X-163875Y-98219D01*
X-176804Y-103574D01*
X-187907Y-112093D01*
X-196426Y-123196D01*
X-197500Y-125788D01*
X-202500D01*
X-203574Y-123196D01*
X-212093Y-112093D01*
X-216247Y-108906D01*
Y-100000D01*
X-217397Y-91264D01*
X-220769Y-83123D01*
X-226133Y-76133D01*
X-242864Y-59402D01*
X-240950Y-54782D01*
X112664D01*
X120218Y-62336D01*
D02*
G37*
G36*
X203574Y-176804D02*
X212093Y-187907D01*
X223196Y-196426D01*
X236125Y-201781D01*
X250000Y-203608D01*
X263875Y-201781D01*
X276804Y-196426D01*
X287907Y-187907D01*
X295363Y-178190D01*
X300363Y-179887D01*
Y-230948D01*
X298219Y-236125D01*
X296392Y-250000D01*
X298219Y-263875D01*
X303574Y-276804D01*
X312093Y-287907D01*
X312233Y-290033D01*
X289168Y-313097D01*
X-189168D01*
X-216247Y-286019D01*
Y-191094D01*
X-212093Y-187907D01*
X-204637Y-178190D01*
X-199637Y-179887D01*
Y-230948D01*
X-201781Y-236125D01*
X-203608Y-250000D01*
X-201781Y-263875D01*
X-196426Y-276804D01*
X-187907Y-287907D01*
X-176804Y-296426D01*
X-163875Y-301781D01*
X-150000Y-303608D01*
X-136125Y-301781D01*
X-123196Y-296426D01*
X-112093Y-287907D01*
X-103574Y-276804D01*
X-102500Y-274212D01*
X-97500D01*
X-96426Y-276804D01*
X-87907Y-287907D01*
X-76804Y-296426D01*
X-63875Y-301781D01*
X-50000Y-303608D01*
X-36125Y-301781D01*
X-23196Y-296426D01*
X-12093Y-287907D01*
X-3574Y-276804D01*
X-2500Y-274212D01*
X2500D01*
X3574Y-276804D01*
X12093Y-287907D01*
X23196Y-296426D01*
X36125Y-301781D01*
X50000Y-303608D01*
X63875Y-301781D01*
X76804Y-296426D01*
X87907Y-287907D01*
X96426Y-276804D01*
X101781Y-263875D01*
X103608Y-250000D01*
X101781Y-236125D01*
X99637Y-230948D01*
Y-179887D01*
X104637Y-178190D01*
X112093Y-187907D01*
X123196Y-196426D01*
X136125Y-201781D01*
X150000Y-203608D01*
X163875Y-201781D01*
X176804Y-196426D01*
X187907Y-187907D01*
X196426Y-176804D01*
X197500Y-174212D01*
X202500D01*
X203574Y-176804D01*
D02*
G37*
G36*
X-737907Y-437907D02*
X-726804Y-446426D01*
X-724212Y-447500D01*
Y-452500D01*
X-726804Y-453574D01*
X-737907Y-462093D01*
X-741094Y-466247D01*
X-784646D01*
Y-456693D01*
X-966188D01*
Y-443307D01*
X-784646D01*
Y-429782D01*
X-744141D01*
X-737907Y-437907D01*
D02*
G37*
G36*
X653574Y-436647D02*
X662093Y-447749D01*
X673196Y-456269D01*
X675788Y-457342D01*
Y-462342D01*
X673196Y-463416D01*
X669507Y-466247D01*
X-106750D01*
X-108467Y-463753D01*
X-105901Y-458753D01*
X375000D01*
X383736Y-457603D01*
X391877Y-454231D01*
X398867Y-448867D01*
X413981Y-433753D01*
X652375D01*
X653574Y-436647D01*
D02*
G37*
G36*
X787795Y-443307D02*
X966188D01*
Y-456693D01*
X787795D01*
Y-466247D01*
X730493D01*
X726804Y-463416D01*
X724212Y-462342D01*
Y-457342D01*
X726804Y-456269D01*
X737907Y-447749D01*
X746426Y-436647D01*
X747625Y-433753D01*
X787795D01*
Y-443307D01*
D02*
G37*
G36*
X668690Y1158254D02*
X658903Y1151715D01*
X638144Y1133509D01*
X619939Y1112751D01*
X604599Y1089793D01*
X592387Y1065030D01*
X583512Y1038884D01*
X578126Y1011804D01*
X576320Y984252D01*
X578126Y956700D01*
X583512Y929620D01*
X592387Y903475D01*
X604599Y878711D01*
X619939Y855754D01*
X638144Y834995D01*
X658903Y816789D01*
X681861Y801450D01*
X706624Y789238D01*
X732770Y780363D01*
X759850Y774976D01*
X787402Y773170D01*
X814953Y774976D01*
X842034Y780363D01*
X868179Y789238D01*
X892942Y801450D01*
X915900Y816789D01*
X936659Y834995D01*
X954864Y855754D01*
X961404Y865541D01*
X966188Y864089D01*
Y-260473D01*
X909842D01*
Y-300000D01*
Y-339527D01*
X966188D01*
Y-356693D01*
X787795D01*
Y-366247D01*
X732059D01*
X730193Y-364213D01*
X732391Y-359213D01*
X749370D01*
Y-319685D01*
X700000D01*
X650630D01*
Y-359213D01*
X667609D01*
X669807Y-364213D01*
X667941Y-366247D01*
X400000D01*
X391264Y-367397D01*
X383123Y-370769D01*
X376133Y-376133D01*
X361019Y-391247D01*
X-261019D01*
X-316247Y-336019D01*
Y-191094D01*
X-312093Y-187907D01*
X-303574Y-176804D01*
X-302500Y-174212D01*
X-297500D01*
X-296426Y-176804D01*
X-287907Y-187907D01*
X-283753Y-191094D01*
Y-300000D01*
X-282603Y-308736D01*
X-279231Y-316877D01*
X-273867Y-323867D01*
X-227017Y-370718D01*
X-220026Y-376082D01*
X-211886Y-379454D01*
X-203150Y-380604D01*
X303150D01*
X311886Y-379454D01*
X320026Y-376082D01*
X327017Y-370718D01*
X373867Y-323867D01*
X379231Y-316877D01*
X382603Y-308736D01*
X383753Y-300000D01*
Y-291094D01*
X387907Y-287907D01*
X396426Y-276804D01*
X401781Y-263875D01*
X403608Y-250000D01*
X401781Y-236125D01*
X399637Y-230948D01*
Y-169052D01*
X401781Y-163875D01*
X403608Y-150000D01*
X401781Y-136125D01*
X396426Y-123196D01*
X387907Y-112093D01*
X376804Y-103574D01*
X363875Y-98219D01*
X350000Y-96392D01*
X336125Y-98219D01*
X323196Y-103574D01*
X312093Y-112093D01*
X303574Y-123196D01*
X302500Y-125788D01*
X297500D01*
X296426Y-123196D01*
X287907Y-112093D01*
X283753Y-108906D01*
Y-63981D01*
X338981Y-8753D01*
X400000D01*
X408736Y-7603D01*
X416877Y-4231D01*
X423867Y1133D01*
X473867Y51133D01*
X479231Y58123D01*
X482603Y66264D01*
X483753Y75000D01*
Y208906D01*
X487907Y212093D01*
X496426Y223196D01*
X501781Y236125D01*
X503608Y250000D01*
X502925Y255190D01*
X563981Y316247D01*
X650000D01*
X658736Y317397D01*
X666877Y320769D01*
X673867Y326133D01*
X763237Y415503D01*
X768601Y422493D01*
X771973Y430634D01*
X773123Y439370D01*
Y513976D01*
X772835Y516170D01*
Y563189D01*
X705906D01*
Y516170D01*
X705617Y513976D01*
Y453351D01*
X636019Y383753D01*
X550000D01*
X541264Y382603D01*
X533123Y379231D01*
X526133Y373867D01*
X455190Y302925D01*
X450000Y303608D01*
X436125Y301781D01*
X423196Y296426D01*
X412093Y287907D01*
X403574Y276804D01*
X402500Y274212D01*
X397500D01*
X396426Y276804D01*
X387907Y287907D01*
X383753Y291094D01*
Y311019D01*
X463981Y391247D01*
X500000D01*
X508736Y392397D01*
X516877Y395769D01*
X523867Y401133D01*
X563237Y440503D01*
X568601Y447493D01*
X571973Y455634D01*
X573123Y464370D01*
Y513976D01*
X572835Y516170D01*
Y563189D01*
X505906D01*
Y516170D01*
X505617Y513976D01*
Y478351D01*
X494966Y467700D01*
X494757Y467808D01*
X494757Y467809D01*
X490315Y470120D01*
X490315Y472890D01*
Y504134D01*
X470473D01*
Y468543D01*
X485608D01*
X488738Y468543D01*
X491158Y463893D01*
X486019Y458753D01*
X450000D01*
X441264Y457603D01*
X433123Y454231D01*
X426133Y448867D01*
X326133Y348867D01*
X320769Y341877D01*
X317397Y333736D01*
X316247Y325000D01*
Y291094D01*
X312093Y287907D01*
X303574Y276804D01*
X302500Y274212D01*
X297500D01*
X296426Y276804D01*
X287907Y287907D01*
X283753Y291094D01*
Y361019D01*
X363237Y440503D01*
X368601Y447493D01*
X371973Y455634D01*
X373123Y464370D01*
Y513976D01*
X372835Y516170D01*
Y563189D01*
X305906D01*
Y516170D01*
X305617Y513976D01*
Y478351D01*
X294966Y467700D01*
X294757Y467808D01*
X294757Y467809D01*
X290315Y470120D01*
X290315Y472890D01*
Y504134D01*
X270473D01*
Y468543D01*
X285608D01*
X288738Y468543D01*
X291158Y463893D01*
X226133Y398867D01*
X220769Y391877D01*
X217397Y383736D01*
X216247Y375000D01*
Y291094D01*
X212093Y287907D01*
X203574Y276804D01*
X202500Y274212D01*
X197500D01*
X196426Y276804D01*
X187907Y287907D01*
X176804Y296426D01*
X173123Y297951D01*
Y513976D01*
X172835Y516170D01*
Y563189D01*
X105906D01*
Y516170D01*
X105617Y513976D01*
Y279466D01*
X103574Y276804D01*
X102500Y274212D01*
X97500D01*
X96426Y276804D01*
X87907Y287907D01*
X83753Y291094D01*
Y350000D01*
X82603Y358736D01*
X79231Y366877D01*
X73867Y373867D01*
X-26877Y474611D01*
Y513976D01*
X-27165Y516170D01*
Y563189D01*
X-94094D01*
Y516170D01*
X-94383Y513976D01*
Y460630D01*
X-93233Y451894D01*
X-89861Y443753D01*
X-84497Y436763D01*
X16247Y336019D01*
Y291094D01*
X12093Y287907D01*
X3574Y276804D01*
X2500Y274212D01*
X-2500D01*
X-3574Y276804D01*
X-12093Y287907D01*
X-23196Y296426D01*
X-24570Y296995D01*
X-26133Y299032D01*
X-226877Y499776D01*
Y513976D01*
X-227165Y516170D01*
Y563189D01*
X-294094D01*
Y516170D01*
X-294383Y513976D01*
Y485630D01*
X-294094Y483436D01*
Y464764D01*
X-286800D01*
X-284497Y461763D01*
X-281850Y459116D01*
X-284683Y454877D01*
X-291264Y457603D01*
X-300000Y458753D01*
X-426877D01*
Y513976D01*
X-427165Y516170D01*
Y563189D01*
X-494094D01*
Y516170D01*
X-494383Y513976D01*
Y435630D01*
X-493233Y426894D01*
X-489861Y418753D01*
X-484497Y411763D01*
X-473867Y401133D01*
X-466877Y395769D01*
X-458736Y392397D01*
X-450000Y391247D01*
X-313981D01*
X-306850Y384116D01*
X-309683Y379877D01*
X-316264Y382603D01*
X-325000Y383753D01*
X-586019D01*
X-626877Y424611D01*
Y513976D01*
X-627165Y516170D01*
Y563189D01*
X-694094D01*
Y516170D01*
X-694383Y513976D01*
Y410630D01*
X-693233Y401894D01*
X-689861Y393753D01*
X-684497Y386763D01*
X-623867Y326133D01*
X-616877Y320769D01*
X-608736Y317397D01*
X-600000Y316247D01*
X-338981D01*
X-326962Y304228D01*
X-329298Y299492D01*
X-330315Y299626D01*
X-340158D01*
Y250000D01*
X-350000D01*
Y240157D01*
X-399626D01*
Y230315D01*
X-398606Y222565D01*
X-395615Y215344D01*
X-390857Y209143D01*
X-384656Y204385D01*
X-377435Y201394D01*
X-374824Y201050D01*
X-370850Y195515D01*
X-371000Y194739D01*
X-374898Y193125D01*
X-385211Y185211D01*
X-393125Y174898D01*
X-398099Y162888D01*
X-398500Y159843D01*
X-350000D01*
Y150000D01*
X-340158D01*
Y101500D01*
X-337112Y101901D01*
X-325102Y106875D01*
X-314789Y114789D01*
X-306875Y125102D01*
X-304751Y130230D01*
X-299339D01*
X-296426Y123196D01*
X-287907Y112093D01*
X-276804Y103574D01*
X-263875Y98219D01*
X-250000Y96392D01*
X-236125Y98219D01*
X-223196Y103574D01*
X-212093Y112093D01*
X-203574Y123196D01*
X-202500Y125788D01*
X-197500D01*
X-196426Y123196D01*
X-187907Y112093D01*
X-176804Y103574D01*
X-163875Y98219D01*
X-150000Y96392D01*
X-136125Y98219D01*
X-123196Y103574D01*
X-112093Y112093D01*
X-103574Y123196D01*
X-102500Y125788D01*
X-97500D01*
X-96426Y123196D01*
X-87907Y112093D01*
X-76804Y103574D01*
X-63875Y98219D01*
X-50000Y96392D01*
X-36125Y98219D01*
X-23196Y103574D01*
X-12093Y112093D01*
X-3574Y123196D01*
X-2500Y125788D01*
X2500D01*
X3574Y123196D01*
X12093Y112093D01*
X23196Y103574D01*
X36125Y98219D01*
X50000Y96392D01*
X63875Y98219D01*
X76804Y103574D01*
X87907Y112093D01*
X96426Y123196D01*
X97500Y125788D01*
X102500D01*
X103574Y123196D01*
X112093Y112093D01*
X123196Y103574D01*
X136125Y98219D01*
X150000Y96392D01*
X163875Y98219D01*
X176804Y103574D01*
X187907Y112093D01*
X196426Y123196D01*
X197500Y125788D01*
X202500D01*
X203574Y123196D01*
X212093Y112093D01*
X223196Y103574D01*
X236125Y98219D01*
X250000Y96392D01*
X263875Y98219D01*
X276804Y103574D01*
X287907Y112093D01*
X291850Y117233D01*
X296850Y115535D01*
Y96850D01*
X403150D01*
Y203150D01*
X399637D01*
Y220113D01*
X404637Y221810D01*
X412093Y212093D01*
X416247Y208906D01*
Y88981D01*
X386019Y58753D01*
X325000D01*
X316264Y57603D01*
X308123Y54231D01*
X301133Y48867D01*
X226133Y-26133D01*
X220769Y-33123D01*
X217397Y-41264D01*
X216247Y-50000D01*
Y-108906D01*
X212093Y-112093D01*
X203574Y-123196D01*
X202500Y-125788D01*
X197500D01*
X196426Y-123196D01*
X187907Y-112093D01*
X179782Y-105859D01*
Y-50000D01*
X178768Y-42292D01*
X175792Y-35109D01*
X171059Y-28941D01*
X171059Y-28940D01*
X146059Y-3941D01*
X139891Y792D01*
X132708Y3768D01*
X125000Y4782D01*
X-450000D01*
X-457708Y3768D01*
X-464891Y792D01*
X-471059Y-3941D01*
X-471060Y-3941D01*
X-621059Y-153941D01*
X-625792Y-160109D01*
X-628768Y-167292D01*
X-629782Y-175000D01*
Y-337664D01*
X-655990Y-363872D01*
X-660980Y-363545D01*
X-662093Y-362093D01*
X-672158Y-354370D01*
X-671037Y-349370D01*
X-650630D01*
Y-309842D01*
X-700000D01*
X-749370D01*
Y-349370D01*
X-728963D01*
X-727842Y-354370D01*
X-737907Y-362093D01*
X-744141Y-370218D01*
X-784646D01*
Y-356693D01*
X-966188D01*
Y-339527D01*
X-906693D01*
Y-300000D01*
Y-260473D01*
X-966188D01*
Y864089D01*
X-961404Y865541D01*
X-954864Y855754D01*
X-936659Y834995D01*
X-915900Y816789D01*
X-892942Y801450D01*
X-868179Y789238D01*
X-842034Y780363D01*
X-814953Y774976D01*
X-787402Y773170D01*
X-759850Y774976D01*
X-732770Y780363D01*
X-706624Y789238D01*
X-681861Y801450D01*
X-658903Y816789D01*
X-638144Y834995D01*
X-619939Y855754D01*
X-604599Y878711D01*
X-592387Y903475D01*
X-583512Y929620D01*
X-578126Y956700D01*
X-576320Y984252D01*
X-578126Y1011804D01*
X-583512Y1038884D01*
X-592387Y1065030D01*
X-604599Y1089793D01*
X-619939Y1112751D01*
X-638144Y1133509D01*
X-658903Y1151715D01*
X-668690Y1158254D01*
X-667239Y1163039D01*
X667239D01*
X668690Y1158254D01*
D02*
G37*
%LPC*%
G36*
X-109843Y-1059842D02*
X-169055D01*
Y-1138740D01*
X-109843D01*
Y-1059842D01*
D02*
G37*
G36*
X-30945D02*
X-90157D01*
Y-1138740D01*
X-30945D01*
Y-1059842D01*
D02*
G37*
G36*
X300000Y-957128D02*
X285722Y-958534D01*
X271993Y-962699D01*
X259339Y-969462D01*
X248249Y-978564D01*
X239147Y-989654D01*
X232384Y-1002308D01*
X228219Y-1016037D01*
X226813Y-1030315D01*
Y-1069685D01*
X228219Y-1083963D01*
X232384Y-1097693D01*
X239147Y-1110345D01*
X248249Y-1121436D01*
X259339Y-1130538D01*
X271993Y-1137301D01*
X285722Y-1141466D01*
X300000Y-1142872D01*
X314278Y-1141466D01*
X328007Y-1137301D01*
X340661Y-1130538D01*
X351751Y-1121436D01*
X360853Y-1110345D01*
X364454Y-1103608D01*
X475000D01*
X488875Y-1101782D01*
X501804Y-1096426D01*
X512907Y-1087907D01*
X521426Y-1076804D01*
X526782Y-1063875D01*
X528608Y-1050000D01*
X526782Y-1036125D01*
X521426Y-1023196D01*
X512907Y-1012093D01*
X501804Y-1003574D01*
X488875Y-998218D01*
X475000Y-996392D01*
X364454D01*
X360853Y-989654D01*
X351751Y-978564D01*
X340661Y-969462D01*
X328007Y-962699D01*
X314278Y-958534D01*
X300000Y-957128D01*
D02*
G37*
G36*
X-300000D02*
X-314278Y-958534D01*
X-328007Y-962699D01*
X-340661Y-969462D01*
X-351751Y-978564D01*
X-360853Y-989654D01*
X-364454Y-996392D01*
X-475000D01*
X-488875Y-998218D01*
X-501804Y-1003574D01*
X-512907Y-1012093D01*
X-521426Y-1023196D01*
X-526782Y-1036125D01*
X-528608Y-1050000D01*
X-526782Y-1063875D01*
X-521426Y-1076804D01*
X-512907Y-1087907D01*
X-501804Y-1096426D01*
X-488875Y-1101782D01*
X-475000Y-1103608D01*
X-364454D01*
X-360853Y-1110345D01*
X-351751Y-1121436D01*
X-340661Y-1130538D01*
X-328007Y-1137301D01*
X-314278Y-1141466D01*
X-300000Y-1142872D01*
X-285722Y-1141466D01*
X-271993Y-1137301D01*
X-259339Y-1130538D01*
X-248249Y-1121436D01*
X-239147Y-1110345D01*
X-232384Y-1097693D01*
X-228219Y-1083963D01*
X-226813Y-1069685D01*
Y-1030315D01*
X-228219Y-1016037D01*
X-232384Y-1002308D01*
X-239147Y-989654D01*
X-248249Y-978564D01*
X-259339Y-969462D01*
X-271993Y-962699D01*
X-285722Y-958534D01*
X-300000Y-957128D01*
D02*
G37*
G36*
X90157Y-1059842D02*
X30945D01*
Y-1138740D01*
X90157D01*
Y-1059842D01*
D02*
G37*
G36*
X-9842Y-751500D02*
X-12888Y-751901D01*
X-24898Y-756875D01*
X-35211Y-764789D01*
X-43125Y-775102D01*
X-48099Y-787112D01*
X-48500Y-790158D01*
X-9842D01*
Y-751500D01*
D02*
G37*
G36*
X9842D02*
Y-790158D01*
X48500D01*
X48099Y-787112D01*
X43125Y-775102D01*
X35211Y-764789D01*
X24898Y-756875D01*
X12888Y-751901D01*
X9842Y-751500D01*
D02*
G37*
G36*
X590158D02*
X587112Y-751901D01*
X575102Y-756875D01*
X564789Y-764789D01*
X556875Y-775102D01*
X551901Y-787112D01*
X551500Y-790158D01*
X590158D01*
Y-751500D01*
D02*
G37*
G36*
X-590158D02*
Y-790158D01*
X-551500D01*
X-551901Y-787112D01*
X-556875Y-775102D01*
X-564789Y-764789D01*
X-575102Y-756875D01*
X-587112Y-751901D01*
X-590158Y-751500D01*
D02*
G37*
G36*
X48500Y-809842D02*
X9842D01*
Y-848500D01*
X12888Y-848099D01*
X24898Y-843125D01*
X35211Y-835211D01*
X43125Y-824898D01*
X48099Y-812888D01*
X48500Y-809842D01*
D02*
G37*
G36*
X590158D02*
X551500D01*
X551901Y-812888D01*
X556875Y-824898D01*
X564789Y-835211D01*
X575102Y-843125D01*
X587112Y-848099D01*
X590158Y-848500D01*
Y-809842D01*
D02*
G37*
G36*
X-609842Y-751500D02*
X-612888Y-751901D01*
X-624898Y-756875D01*
X-635211Y-764789D01*
X-643125Y-775102D01*
X-648099Y-787112D01*
X-648500Y-790158D01*
X-609842D01*
Y-751500D01*
D02*
G37*
G36*
X609842D02*
Y-790158D01*
X648500D01*
X648099Y-787112D01*
X643125Y-775102D01*
X635211Y-764789D01*
X624898Y-756875D01*
X612888Y-751901D01*
X609842Y-751500D01*
D02*
G37*
G36*
X-30945Y-961260D02*
X-90157D01*
Y-1040158D01*
X-30945D01*
Y-961260D01*
D02*
G37*
G36*
X-109843D02*
X-169055D01*
Y-1040158D01*
X-109843D01*
Y-961260D01*
D02*
G37*
G36*
X169055Y-1059842D02*
X109843D01*
Y-1138740D01*
X169055D01*
Y-1059842D01*
D02*
G37*
G36*
X90157Y-961260D02*
X30945D01*
Y-1040158D01*
X90157D01*
Y-961260D01*
D02*
G37*
G36*
X-9842Y-809842D02*
X-48500D01*
X-48099Y-812888D01*
X-43125Y-824898D01*
X-35211Y-835211D01*
X-24898Y-843125D01*
X-12888Y-848099D01*
X-9842Y-848500D01*
Y-809842D01*
D02*
G37*
G36*
X-551500D02*
X-590158D01*
Y-848500D01*
X-587112Y-848099D01*
X-575102Y-843125D01*
X-564789Y-835211D01*
X-556875Y-824898D01*
X-551901Y-812888D01*
X-551500Y-809842D01*
D02*
G37*
G36*
X169055Y-961260D02*
X109843D01*
Y-1040158D01*
X169055D01*
Y-961260D01*
D02*
G37*
G36*
X890158Y-309842D02*
X791575D01*
Y-339527D01*
X890158D01*
Y-309842D01*
D02*
G37*
G36*
X749370Y-260472D02*
X709842D01*
Y-300000D01*
X749370D01*
Y-260472D01*
D02*
G37*
G36*
X690157D02*
X650630D01*
Y-300000D01*
X690157D01*
Y-260472D01*
D02*
G37*
G36*
X-788425Y-309842D02*
X-887008D01*
Y-339527D01*
X-788425D01*
Y-309842D01*
D02*
G37*
G36*
X-709842Y-159843D02*
X-748500D01*
X-748099Y-162888D01*
X-743125Y-174898D01*
X-735211Y-185211D01*
X-724898Y-193125D01*
X-712888Y-198099D01*
X-709842Y-198500D01*
Y-159843D01*
D02*
G37*
G36*
X-651500D02*
X-690158D01*
Y-198500D01*
X-687112Y-198099D01*
X-675102Y-193125D01*
X-664789Y-185211D01*
X-656875Y-174898D01*
X-651901Y-162888D01*
X-651500Y-159843D01*
D02*
G37*
G36*
X-788425Y-260473D02*
X-887008D01*
Y-290158D01*
X-788425D01*
Y-260473D01*
D02*
G37*
G36*
X890158D02*
X791575D01*
Y-290158D01*
X890158D01*
Y-260473D01*
D02*
G37*
G36*
X-709842Y-250630D02*
X-749370D01*
Y-290158D01*
X-709842D01*
Y-250630D01*
D02*
G37*
G36*
X-650630D02*
X-690158D01*
Y-290158D01*
X-650630D01*
Y-250630D01*
D02*
G37*
G36*
X690158Y-159843D02*
X651500D01*
X651901Y-162888D01*
X656875Y-174898D01*
X664789Y-185211D01*
X675102Y-193125D01*
X687112Y-198099D01*
X690158Y-198500D01*
Y-159843D01*
D02*
G37*
G36*
X-149212Y559409D02*
X-169055D01*
Y523819D01*
X-149212D01*
Y559409D01*
D02*
G37*
G36*
X650788D02*
X630945D01*
Y523819D01*
X650788D01*
Y559409D01*
D02*
G37*
G36*
X250788D02*
X230945D01*
Y523819D01*
X250788D01*
Y559409D01*
D02*
G37*
G36*
X90315D02*
X70473D01*
Y523819D01*
X90315D01*
Y559409D01*
D02*
G37*
G36*
X-309685D02*
X-329527D01*
Y523819D01*
X-309685D01*
Y559409D01*
D02*
G37*
G36*
X50788D02*
X30945D01*
Y523819D01*
X50788D01*
Y559409D01*
D02*
G37*
G36*
X-349212D02*
X-369055D01*
Y523819D01*
X-349212D01*
Y559409D01*
D02*
G37*
G36*
X450788D02*
X430945D01*
Y523819D01*
X450788D01*
Y559409D01*
D02*
G37*
G36*
X-549212D02*
X-569055D01*
Y523819D01*
X-549212D01*
Y559409D01*
D02*
G37*
G36*
X-749212D02*
X-769055D01*
Y523819D01*
X-749212D01*
Y559409D01*
D02*
G37*
G36*
X490315D02*
X470473D01*
Y523819D01*
X490315D01*
Y559409D01*
D02*
G37*
G36*
X41077Y615158D02*
X9842D01*
Y580505D01*
X10833Y580635D01*
X20927Y584816D01*
X29595Y591468D01*
X36247Y600136D01*
X40428Y610230D01*
X41077Y615158D01*
D02*
G37*
G36*
X-9842D02*
X-41077D01*
X-40428Y610230D01*
X-36247Y600136D01*
X-29595Y591468D01*
X-20927Y584816D01*
X-10833Y580635D01*
X-9842Y580505D01*
Y615158D01*
D02*
G37*
G36*
Y669495D02*
X-10833Y669365D01*
X-20927Y665184D01*
X-29595Y658532D01*
X-36247Y649864D01*
X-40428Y639770D01*
X-41077Y634842D01*
X-9842D01*
Y669495D01*
D02*
G37*
G36*
X450000Y1128608D02*
X75000D01*
X61125Y1126782D01*
X53551Y1123644D01*
X48196Y1121426D01*
X37093Y1112907D01*
X-37907Y1037907D01*
X-46426Y1026804D01*
X-51782Y1013875D01*
X-53608Y1000000D01*
Y941093D01*
X-58343Y939486D01*
X-59285Y940715D01*
X-66247Y946056D01*
Y950000D01*
X-67397Y958736D01*
X-70769Y966877D01*
X-76133Y973867D01*
X-126133Y1023867D01*
X-133123Y1029231D01*
X-141264Y1032603D01*
X-150000Y1033753D01*
X-336024D01*
X-344760Y1032603D01*
X-352900Y1029231D01*
X-359891Y1023867D01*
X-698522Y685236D01*
X-733465D01*
Y638217D01*
X-733753Y636024D01*
X-733465Y633830D01*
Y586811D01*
X-666535D01*
Y621754D01*
X-322043Y966247D01*
X-163981D01*
X-140575Y942841D01*
X-140715Y940715D01*
X-146849Y932720D01*
X-153151D01*
X-159285Y940715D01*
X-171210Y949865D01*
X-185097Y955617D01*
X-200000Y957579D01*
X-214903Y955617D01*
X-228790Y949865D01*
X-240715Y940715D01*
X-246056Y933753D01*
X-250000D01*
X-258736Y932603D01*
X-266877Y929231D01*
X-273867Y923867D01*
X-512498Y685236D01*
X-533465D01*
Y652194D01*
X-533753Y650000D01*
Y636024D01*
X-533465Y633830D01*
Y586811D01*
X-466536D01*
Y633830D01*
X-466247Y636018D01*
X-242841Y859425D01*
X-240714Y859285D01*
X-232720Y853151D01*
Y846849D01*
X-240715Y840715D01*
X-249865Y828790D01*
X-255617Y814903D01*
X-257579Y800000D01*
X-256434Y791301D01*
X-323867Y723867D01*
X-329231Y716877D01*
X-332603Y708736D01*
X-333753Y700000D01*
Y636024D01*
X-333464Y633830D01*
Y586811D01*
X-266536D01*
Y633830D01*
X-266247Y636024D01*
Y686019D01*
X-208700Y743566D01*
X-200000Y742421D01*
X-185097Y744383D01*
X-171210Y750135D01*
X-159285Y759285D01*
X-153151Y767280D01*
X-146849D01*
X-140715Y759285D01*
X-133753Y753944D01*
Y636024D01*
X-133464Y633830D01*
Y586811D01*
X-66535D01*
Y633830D01*
X-66247Y636024D01*
Y753944D01*
X-59285Y759285D01*
X-53151Y767280D01*
X-46849D01*
X-40715Y759285D01*
X-28790Y750135D01*
X-14903Y744383D01*
X0Y742421D01*
X14903Y744383D01*
X28790Y750135D01*
X40715Y759285D01*
X46849Y767280D01*
X53151D01*
X59285Y759285D01*
X66247Y753944D01*
Y636024D01*
X66535Y633830D01*
Y586811D01*
X133464D01*
Y633830D01*
X133753Y636024D01*
Y753944D01*
X140715Y759285D01*
X146849Y767280D01*
X153151D01*
X159285Y759285D01*
X171210Y750135D01*
X185097Y744383D01*
X200000Y742421D01*
X208700Y743566D01*
X266247Y686019D01*
Y636024D01*
X266536Y633830D01*
Y586811D01*
X333464D01*
Y633830D01*
X333753Y636024D01*
Y700000D01*
X332603Y708736D01*
X329231Y716877D01*
X323867Y723867D01*
X256434Y791301D01*
X257579Y800000D01*
X255617Y814903D01*
X249865Y828790D01*
X242864Y837913D01*
X245330Y842913D01*
X257086D01*
X257087Y842913D01*
Y842913D01*
X261307Y840959D01*
X466247Y636018D01*
X466536Y633830D01*
Y586811D01*
X533465D01*
Y633830D01*
X533753Y636024D01*
Y650000D01*
X533465Y652194D01*
Y685236D01*
X512498D01*
X273867Y923867D01*
X266877Y929231D01*
X258736Y932603D01*
X257087Y932820D01*
Y957087D01*
X161354D01*
X159440Y961706D01*
X163981Y966247D01*
X322043D01*
X666535Y621754D01*
Y586811D01*
X733465D01*
Y633830D01*
X733753Y636024D01*
X733465Y638217D01*
Y685236D01*
X698522D01*
X366986Y1016772D01*
X368899Y1021392D01*
X450000D01*
X463875Y1023218D01*
X476804Y1028574D01*
X487907Y1037093D01*
X496426Y1048196D01*
X501781Y1061125D01*
X503608Y1075000D01*
X501781Y1088875D01*
X496426Y1101804D01*
X487907Y1112907D01*
X476804Y1121426D01*
X463875Y1126782D01*
X450000Y1128608D01*
D02*
G37*
G36*
X9842Y669495D02*
Y634842D01*
X41077D01*
X40428Y639770D01*
X36247Y649864D01*
X29595Y658532D01*
X20927Y665184D01*
X10833Y669365D01*
X9842Y669495D01*
D02*
G37*
G36*
X-709685Y559409D02*
X-729527D01*
Y523819D01*
X-709685D01*
Y559409D01*
D02*
G37*
G36*
X690315D02*
X670473D01*
Y523819D01*
X690315D01*
Y559409D01*
D02*
G37*
G36*
X-509685D02*
X-529527D01*
Y523819D01*
X-509685D01*
Y559409D01*
D02*
G37*
G36*
X290315D02*
X270473D01*
Y523819D01*
X290315D01*
Y559409D01*
D02*
G37*
G36*
X-109685D02*
X-129527D01*
Y523819D01*
X-109685D01*
Y559409D01*
D02*
G37*
G36*
X-359842Y299626D02*
X-369685D01*
X-377435Y298606D01*
X-384656Y295615D01*
X-390857Y290857D01*
X-395615Y284656D01*
X-398606Y277435D01*
X-399626Y269685D01*
Y259842D01*
X-359842D01*
Y299626D01*
D02*
G37*
G36*
Y140157D02*
X-398500D01*
X-398099Y137112D01*
X-393125Y125102D01*
X-385211Y114789D01*
X-374898Y106875D01*
X-362888Y101901D01*
X-359842Y101500D01*
Y140157D01*
D02*
G37*
G36*
X250788Y504134D02*
X230945D01*
Y468543D01*
X250788D01*
Y504134D01*
D02*
G37*
G36*
X-749212D02*
X-769055D01*
Y468543D01*
X-749212D01*
Y504134D01*
D02*
G37*
G36*
X450788D02*
X430945D01*
Y468543D01*
X450788D01*
Y504134D01*
D02*
G37*
G36*
X-709842Y-101500D02*
X-712888Y-101901D01*
X-724898Y-106875D01*
X-735211Y-114789D01*
X-743125Y-125102D01*
X-748099Y-137112D01*
X-748500Y-140157D01*
X-709842D01*
Y-101500D01*
D02*
G37*
G36*
X748500Y-159843D02*
X709842D01*
Y-198500D01*
X712888Y-198099D01*
X724898Y-193125D01*
X735211Y-185211D01*
X743125Y-174898D01*
X748099Y-162888D01*
X748500Y-159843D01*
D02*
G37*
G36*
X-690158Y-101500D02*
Y-140157D01*
X-651500D01*
X-651901Y-137112D01*
X-656875Y-125102D01*
X-664789Y-114789D01*
X-675102Y-106875D01*
X-687112Y-101901D01*
X-690158Y-101500D01*
D02*
G37*
G36*
X709842D02*
Y-140157D01*
X748500D01*
X748099Y-137112D01*
X743125Y-125102D01*
X735211Y-114789D01*
X724898Y-106875D01*
X712888Y-101901D01*
X709842Y-101500D01*
D02*
G37*
G36*
X690158D02*
X687112Y-101901D01*
X675102Y-106875D01*
X664789Y-114789D01*
X656875Y-125102D01*
X651901Y-137112D01*
X651500Y-140157D01*
X690158D01*
Y-101500D01*
D02*
G37*
G36*
X-709685Y504134D02*
X-729527D01*
Y468543D01*
X-709685D01*
Y504134D01*
D02*
G37*
G36*
X50788D02*
X30945D01*
Y468543D01*
X50788D01*
Y504134D01*
D02*
G37*
G36*
X-109685D02*
X-129527D01*
Y468543D01*
X-109685D01*
Y504134D01*
D02*
G37*
G36*
X90315D02*
X70473D01*
Y468543D01*
X90315D01*
Y504134D01*
D02*
G37*
G36*
X690315D02*
X670473D01*
Y468543D01*
X690315D01*
Y504134D01*
D02*
G37*
G36*
X650788D02*
X630945D01*
Y468543D01*
X650788D01*
Y504134D01*
D02*
G37*
G36*
X-509685D02*
X-529527D01*
Y468543D01*
X-509685D01*
Y504134D01*
D02*
G37*
G36*
X-549212D02*
X-569055D01*
Y468543D01*
X-549212D01*
Y504134D01*
D02*
G37*
G36*
X-349212D02*
X-369055D01*
Y468543D01*
X-349212D01*
Y504134D01*
D02*
G37*
G36*
X-149212D02*
X-169055D01*
Y468543D01*
X-149212D01*
Y504134D01*
D02*
G37*
G36*
X-309685D02*
X-329527D01*
Y468543D01*
X-309685D01*
Y504134D01*
D02*
G37*
%LPD*%
D10*
X300000Y-1050000D02*
X475000D01*
X-475000D02*
X-300000D01*
X75000Y1075000D02*
X450000D01*
X0Y1000000D02*
X75000Y1075000D01*
X0Y900000D02*
Y1000000D01*
Y800000D02*
Y900000D01*
D11*
X350000Y150000D02*
Y250000D01*
X250000Y150000D02*
Y250000D01*
X150000Y150000D02*
Y250000D01*
X50000Y150000D02*
Y250000D01*
X-50000Y150000D02*
Y250000D01*
X-150000Y150000D02*
Y250000D01*
X-250000Y150000D02*
Y250000D01*
X350000Y-250000D02*
Y-150000D01*
X50000Y-250000D02*
Y-150000D01*
X-150000Y-250000D02*
Y-150000D01*
X-50000Y-250000D02*
Y-150000D01*
D12*
X300000Y-1050000D02*
D03*
X-300000D02*
D03*
D13*
X100000D02*
D03*
X-100000D02*
D03*
D14*
X-350000Y250000D02*
D03*
D15*
X-250000D02*
D03*
X-150000D02*
D03*
X-50000D02*
D03*
X50000D02*
D03*
X150000D02*
D03*
X250000D02*
D03*
X350000D02*
D03*
X450000D02*
D03*
X700000Y-709842D02*
D03*
Y-609842D02*
D03*
Y-509842D02*
D03*
Y-409842D02*
D03*
X-700000Y-700000D02*
D03*
Y-600000D02*
D03*
Y-500000D02*
D03*
Y-400000D02*
D03*
X350000Y-250000D02*
D03*
X50000D02*
D03*
X250000Y150000D02*
D03*
X150000D02*
D03*
X50000D02*
D03*
X-50000D02*
D03*
X-150000D02*
D03*
X-250000D02*
D03*
X-350000D02*
D03*
Y-150000D02*
D03*
X-250000D02*
D03*
X-150000D02*
D03*
X-50000D02*
D03*
X50000D02*
D03*
X150000D02*
D03*
X250000D02*
D03*
X350000D02*
D03*
D16*
X700000Y-309842D02*
D03*
X-700000Y-300000D02*
D03*
D17*
X0Y625000D02*
D03*
D18*
X350000Y150000D02*
D03*
D19*
X787402Y-984252D02*
D03*
X-787402D02*
D03*
Y984252D02*
D03*
X787402D02*
D03*
D20*
X200000Y900000D02*
D03*
D21*
Y800000D02*
D03*
X100000Y900000D02*
D03*
Y800000D02*
D03*
X0Y900000D02*
D03*
Y800000D02*
D03*
X-100000Y900000D02*
D03*
Y800000D02*
D03*
X-200000Y900000D02*
D03*
Y800000D02*
D03*
D22*
X-475000Y-300000D02*
D03*
Y-1050000D02*
D03*
X475000D02*
D03*
X450000Y1075000D02*
D03*
X0Y-800000D02*
D03*
X600000D02*
D03*
X700000Y-150000D02*
D03*
X-700000D02*
D03*
X-600000Y-800000D02*
D03*
X50000Y-700000D02*
D03*
X-50000Y-250000D02*
D03*
X-150000D02*
D03*
X-50000Y-600000D02*
D03*
X-150000Y-500000D02*
D03*
D23*
X-896850Y-400000D02*
D03*
Y-300000D02*
D03*
Y-500000D02*
D03*
Y-600000D02*
D03*
Y-700000D02*
D03*
X900000D02*
D03*
Y-600000D02*
D03*
Y-500000D02*
D03*
Y-400000D02*
D03*
Y-300000D02*
D03*
D24*
X-660630Y513976D02*
D03*
X-739370D02*
D03*
X-700000Y636024D02*
D03*
X-300000D02*
D03*
X-339370Y513976D02*
D03*
X-260630D02*
D03*
X-500000Y636024D02*
D03*
X-539370Y513976D02*
D03*
X-460630D02*
D03*
X-100000Y636024D02*
D03*
X-139370Y513976D02*
D03*
X-60630D02*
D03*
X100000Y636024D02*
D03*
X60630Y513976D02*
D03*
X139370D02*
D03*
X300000Y636024D02*
D03*
X260630Y513976D02*
D03*
X339370D02*
D03*
X500000Y636024D02*
D03*
X460630Y513976D02*
D03*
X539370D02*
D03*
X700000Y636024D02*
D03*
X660630Y513976D02*
D03*
X739370D02*
D03*
D25*
X50000Y-700000D02*
X900000D01*
X-425000Y-75000D02*
X-275000D01*
X-475000Y-125000D02*
X-425000Y-75000D01*
X-475000Y-300000D02*
Y-125000D01*
X-50000Y-600000D02*
X900000D01*
X-150000Y-500000D02*
X850000D01*
X400000Y-400000D02*
X900000D01*
X400000Y25000D02*
X450000Y75000D01*
X325000Y25000D02*
X400000D01*
X250000Y-50000D02*
X325000Y25000D01*
X450000Y75000D02*
Y250000D01*
X350000Y-300000D02*
Y-250000D01*
X-100000Y900000D02*
Y950000D01*
X-150000Y1000000D02*
X-100000Y950000D01*
X-336024Y1000000D02*
X-150000D01*
X-700000Y636024D02*
X-336024Y1000000D01*
X100000Y900000D02*
Y950000D01*
X150000Y1000000D01*
X336024D01*
X700000Y636024D01*
X-50000Y250000D02*
Y275165D01*
X-252985Y478150D02*
X-50000Y275165D01*
X-250000Y250000D02*
Y275000D01*
X-325000Y350000D02*
X-250000Y275000D01*
X-600000Y350000D02*
X-325000D01*
X-150000Y250000D02*
Y275000D01*
X-300000Y425000D02*
X-150000Y275000D01*
X-450000Y425000D02*
X-300000D01*
X-660630Y410630D02*
Y513976D01*
Y410630D02*
X-600000Y350000D01*
X-253150Y478150D02*
X-252985D01*
X-260630Y485630D02*
X-253150Y478150D01*
X-460630Y435630D02*
X-450000Y425000D01*
X-260630Y485630D02*
Y513976D01*
X50000Y250000D02*
Y350000D01*
X-60630Y460630D02*
X50000Y350000D01*
X-460630Y435630D02*
Y513976D01*
X739370Y439370D02*
Y513976D01*
X650000Y350000D02*
X739370Y439370D01*
X550000Y350000D02*
X650000D01*
X450000Y250000D02*
X550000Y350000D01*
X539370Y464370D02*
Y513976D01*
X500000Y425000D02*
X539370Y464370D01*
X450000Y425000D02*
X500000D01*
X350000Y325000D02*
X450000Y425000D01*
X350000Y250000D02*
Y325000D01*
X339370Y464370D02*
Y513976D01*
X250000Y375000D02*
X339370Y464370D01*
X250000Y250000D02*
Y375000D01*
X-60630Y460630D02*
Y513976D01*
X139370Y260630D02*
Y513976D01*
Y260630D02*
X150000Y250000D01*
X250000Y-150000D02*
Y-50000D01*
X-500000Y636024D02*
Y650000D01*
X-100000Y636024D02*
Y800000D01*
X100000Y636024D02*
Y800000D01*
X300000Y636024D02*
Y700000D01*
X500000Y636024D02*
Y650000D01*
X-300000Y636024D02*
Y700000D01*
X-700000Y-600000D02*
X-50000D01*
X-885827D02*
X-700000D01*
Y-500000D02*
X-150000D01*
X-885827D02*
X-700000D01*
Y-700000D02*
X50000D01*
X-885827D02*
X-700000D01*
X-350000Y-350000D02*
Y-150000D01*
X-250000Y-300000D02*
Y-150000D01*
Y-100000D01*
X-275000Y-75000D02*
X-250000Y-100000D01*
X375000Y-425000D02*
X400000Y-400000D01*
X-275000Y-425000D02*
X375000D01*
X-350000Y-350000D02*
X-275000Y-425000D01*
X-250000Y-300000D02*
X-203150Y-346850D01*
X303150D01*
X350000Y-300000D01*
X250000Y900000D02*
X500000Y650000D01*
X200000Y900000D02*
X250000D01*
X-250000D02*
X-200000D01*
X-500000Y650000D02*
X-250000Y900000D01*
X-300000Y700000D02*
X-200000Y800000D01*
X200000D02*
X300000Y700000D01*
D26*
X-450000Y-25000D02*
X125000D01*
X-600000Y-175000D02*
X-450000Y-25000D01*
X-600000Y-350000D02*
Y-175000D01*
X125000Y-25000D02*
X150000Y-50000D01*
X-700000Y-400000D02*
X-650000D01*
X-885827D02*
X-700000D01*
X-650000D02*
X-600000Y-350000D01*
X150000Y-150000D02*
Y-50000D01*
%TF.MD5,6860188ac9214507e33a6f06895e8d9b*%
M02*
